<svg xmlns="http://www.w3.org/2000/svg" viewBox="0 0 240 60" width="240" height="60">
  <defs>
    <linearGradient id="grad1" x1="0%" y1="0%" x2="100%" y2="100%">
      <stop offset="0%" style="stop-color:#38bdf8;stop-opacity:1" />
      <stop offset="100%" style="stop-color:#2563eb;stop-opacity:1" />
    </linearGradient>
    <linearGradient id="grad2" x1="0%" y1="0%" x2="100%" y2="100%">
      <stop offset="0%" style="stop-color:#10b981;stop-opacity:1" />
      <stop offset="100%" style="stop-color:#059669;stop-opacity:1" />
    </linearGradient>
  </defs>
  <!-- Icon -->
  <g transform="translate(10, 10)">
    <rect x="0" y="0" width="40" height="40" rx="10" fill="#0f172a" />
    <path d="M12 12 L28 12 A4 4 0 0 1 32 16 L32 28 A4 4 0 0 1 28 32 L12 32 A4 4 0 0 1 8 28 L8 16 A4 4 0 0 1 12 12 Z" fill="none" stroke="url(#grad1)" stroke-width="2.5" />
    <path d="M14 20 L26 20 M14 24 L22 24" stroke="#94a3b8" stroke-width="2" stroke-linecap="round" />
    <circle cx="28" cy="28" r="5" fill="url(#grad2)" />
    <path d="M26 28 L27.5 29.5 L30 26.5" stroke="#ffffff" stroke-width="1.5" stroke-linecap="round" stroke-linejoin="round" />
  </g>
  <!-- Text -->
  <text x="60" y="28" font-family="-apple-system, BlinkMacSystemFont, 'Segoe UI', Roboto, sans-serif" font-size="16" font-weight="800" fill="#0f172a" letter-spacing="-0.3">
    RECON<tspan fill="#2563eb">AI</tspan>
  </text>
  <text x="60" y="44" font-family="-apple-system, BlinkMacSystemFont, 'Segoe UI', Roboto, sans-serif" font-size="10" font-weight="600" fill="#64748b" letter-spacing="1">
    ENTERPRISE AGENT
  </text>
</svg>
